<?xml version="1.0" encoding="UTF-8"?>
<svg width="10px" height="10px" viewBox="0 0 10 10" version="1.1" xmlns="http://www.w3.org/2000/svg" xmlns:xlink="http://www.w3.org/1999/xlink">
    <!-- Generator: Sketch 52.2 (67145) - http://www.bohemiancoding.com/sketch -->
    <title>Desktop HD Copy 2</title>
    <desc>Created with Sketch.</desc>
    <g id="Page-1" stroke="none" stroke-width="1" fill="none" fill-rule="evenodd">
        <g id="Desktop-HD-Copy-2" transform="translate(-298.000000, -918.000000)" fill="#FF8626" fill-rule="nonzero">
            <path d="M303.000537,925.083366 C303.218713,925.083035 303.43581,925.140679 303.627456,925.255693 L305.086777,926.112954 L304.715341,924.436114 C304.632478,924.021801 304.774493,923.595756 305.107286,923.265404 L306.39177,922.123693 L304.787184,921.968543 C304.278931,921.968543 303.841378,921.652532 303.673751,921.232177 L303.00067,919.686167 C303.004534,923.277767 303.00449,925.076833 303.000537,925.083366 Z M300.258642,927.55689 C300.152622,927.55689 300.031457,927.526599 299.940584,927.450871 C299.758836,927.31456 299.683108,927.102521 299.728545,926.890482 L300.319224,924.224852 C300.33437,924.133979 300.304079,924.05825 300.243496,923.997668 L298.183691,922.180193 C298.017089,922.028736 297.956507,921.801552 298.032235,921.604659 C298.107963,921.39262 298.274565,921.241164 298.501749,921.226018 L301.212816,920.968543 C301.30369,920.953397 301.379418,920.90796 301.409709,920.832232 L302.500194,918.333204 C302.591068,918.136311 302.787961,918 303,918 C303.227184,918 303.424078,918.121165 303.499806,918.333204 L304.590291,920.832232 C304.620582,920.90796 304.69631,920.968543 304.787184,920.968543 L307.498251,921.226018 C307.725435,921.241164 307.907183,921.39262 307.967765,921.604659 C308.043493,921.816698 307.982911,922.043882 307.816309,922.195338 L305.77165,924.012813 C305.711067,924.073396 305.680776,924.16427 305.695921,924.239998 L306.286601,926.905628 C306.332038,927.117667 306.25631,927.344851 306.074562,927.466016 C305.892815,927.602327 305.66563,927.602327 305.468737,927.496307 L303.121165,926.118056 C303.045437,926.072619 302.954563,926.072619 302.878835,926.118056 L300.531263,927.481162 C300.440389,927.526599 300.349515,927.55689 300.258642,927.55689 Z" id="Shape-Copy"></path>
        </g>
    </g>
</svg>