<?xml version="1.0" encoding="UTF-8"?>
<svg width="10px" height="10px" viewBox="0 0 10 10" version="1.1" xmlns="http://www.w3.org/2000/svg" xmlns:xlink="http://www.w3.org/1999/xlink">
    <!-- Generator: Sketch 52.2 (67145) - http://www.bohemiancoding.com/sketch -->
    <title>Shape</title>
    <desc>Created with Sketch.</desc>
    <g id="Page-1" stroke="none" stroke-width="1" fill="none" fill-rule="evenodd">
        <g id="Desktop-HD-Copy-2" transform="translate(-246.000000, -884.000000)" fill="#FF8626" fill-rule="nonzero">
            <g id="stars-copy-3" transform="translate(246.000000, 884.000000)">
                <path d="M2.25864171,9.55688997 C2.15262232,9.55688997 2.03145732,9.52659871 1.94058356,9.45087059 C1.75883605,9.31455995 1.68310792,9.10252119 1.7285448,8.89048243 L2.31922421,6.22485226 C2.33436983,6.1339785 2.30407858,6.05825038 2.24349608,5.99766787 L0.183690952,4.18019276 C0.0170890664,4.0287365 -0.0434934373,3.80155211 0.0322346924,3.60465897 C0.107962822,3.39262021 0.274564707,3.24116395 0.501749096,3.22601832 L3.21281614,2.96854268 C3.30368989,2.95339706 3.37941802,2.90796018 3.40970928,2.83223205 L4.50019434,0.333203771 C4.5910681,0.136310633 4.78796124,0 5,0 C5.22718439,0 5.42407753,0.121165008 5.49980566,0.333203771 L6.59029072,2.83223205 C6.62058198,2.90796018 6.69631011,2.96854268 6.78718386,2.96854268 L9.4982509,3.22601832 C9.72543529,3.24116395 9.9071828,3.39262021 9.96776531,3.60465897 C10.0434934,3.81669774 9.98291093,4.04388213 9.81630905,4.19533838 L7.77164955,6.0128135 C7.71106704,6.073396 7.68077579,6.16426976 7.69592142,6.23999789 L8.28660083,8.90562805 C8.33203771,9.11766681 8.25630958,9.3448512 8.07456207,9.46601621 C7.89281455,9.60232684 7.66563017,9.60232684 7.46873703,9.49630746 L5.12116501,8.1180555 C5.04543688,8.07261862 4.95456312,8.07261862 4.87883499,8.1180555 L2.53126297,9.48116184 C2.44038922,9.52659871 2.34951546,9.55688997 2.25864171,9.55688997 Z" id="Shape"></path>
            </g>
        </g>
    </g>
</svg>